<svg width="48" height="13" viewBox="0 0 48 13" fill="none" xmlns="http://www.w3.org/2000/svg">
<path fill-rule="evenodd" clip-rule="evenodd" d="M35.2078 0.0836928C35.236 0.0792635 35.2658 0.0771484 35.2943 0.0771484H44.7294C44.758 0.0771484 44.7877 0.0792635 44.8159 0.0836928C45.3775 0.171827 45.2183 0.768265 44.6499 0.768265H35.3739C34.8054 0.768265 34.6462 0.171827 35.2078 0.0836928ZM21.32 0.29174C21.3732 0.161938 21.4996 0.0771484 21.6398 0.0771484H26.2443C26.3846 0.0771484 26.5109 0.161938 26.5641 0.29174C26.6572 0.519095 26.49 0.768265 26.2443 0.768265H21.6398C21.3941 0.768265 21.2269 0.519095 21.32 0.29174ZM0.332031 0.422707C0.332031 0.23186 0.486743 0.0771484 0.67759 0.0771484H12.6077C12.6362 0.0771484 12.666 0.0792677 12.6943 0.0837058C13.2557 0.171917 13.0965 0.768265 12.5282 0.768265H0.67759C0.486743 0.768265 0.332031 0.613554 0.332031 0.422707ZM0.677557 2.0737C0.486728 2.0737 0.332031 2.2284 0.332031 2.41922C0.332031 2.61005 0.486728 2.76475 0.677557 2.76475H14.9433C15.1836 2.76475 15.3671 2.54571 15.2942 2.31678C15.2462 2.16646 15.1027 2.0737 14.945 2.0737H0.677557ZM20.8221 2.0737C20.6818 2.0737 20.5555 2.15848 20.5024 2.28827C20.4092 2.5156 20.5764 2.76475 20.8221 2.76475H27.0621C27.3077 2.76475 27.4749 2.5156 27.3818 2.28827C27.3286 2.15848 27.2023 2.0737 27.0621 2.0737H20.8221ZM32.9566 2.0737C32.7988 2.0737 32.6553 2.16646 32.6074 2.31677C32.5344 2.5457 32.7179 2.76475 32.9582 2.76475H47.0656C47.3058 2.76475 47.4894 2.5457 47.4164 2.31677C47.3684 2.16646 47.2249 2.0737 47.0672 2.0737H32.9566ZM47.5695 4.41571C47.5695 4.22488 47.4148 4.07018 47.224 4.07018H45.033C44.8422 4.07018 44.6875 4.22488 44.6875 4.41571C44.6875 4.60654 44.8422 4.76123 45.033 4.76123H47.224C47.4148 4.76123 47.5695 4.60654 47.5695 4.41571ZM47.5695 6.41219C47.5695 6.22136 47.4148 6.06667 47.224 6.06667H45.033C44.8422 6.06667 44.6875 6.22136 44.6875 6.41219C44.6875 6.60302 44.8422 6.75772 45.033 6.75772H47.224C47.4148 6.75772 47.5695 6.60302 47.5695 6.41219ZM47.5695 8.40868C47.5695 8.21785 47.4148 8.06315 47.224 8.06315H45.033C44.8422 8.06315 44.6875 8.21785 44.6875 8.40868C44.6875 8.59951 44.8422 8.7542 45.033 8.7542H47.224C47.4148 8.7542 47.5695 8.59951 47.5695 8.40868ZM47.472 10.4879C47.5282 10.2639 47.3472 10.0596 47.1162 10.0596H44.1096C44.0025 10.0596 43.8956 10.0741 43.7885 10.0741H36.2353C36.1282 10.0741 36.0213 10.0596 35.9142 10.0596H32.9075C32.6766 10.0596 32.4956 10.2639 32.5517 10.4879C32.592 10.6485 32.7407 10.7507 32.9062 10.7507H47.1175C47.283 10.7507 47.4318 10.6485 47.472 10.4879ZM45.5409 12.7143C45.9476 12.5476 45.7777 12.0561 45.3382 12.0561H34.6855C34.246 12.0561 34.0761 12.5476 34.4829 12.7143C34.5372 12.7366 34.5965 12.7472 34.6553 12.7472H45.3684C45.4272 12.7472 45.4865 12.7366 45.5409 12.7143ZM13.4185 12.7143C13.3641 12.7366 13.3048 12.7472 13.246 12.7472H0.677558C0.486729 12.7472 0.332031 12.5925 0.332031 12.4016C0.332031 12.2108 0.486728 12.0561 0.677557 12.0561H13.2158C13.6554 12.0561 13.8252 12.5477 13.4185 12.7143ZM19.6822 12.5325C19.629 12.6623 19.5027 12.7472 19.3624 12.7472H16.7337C16.4881 12.7472 16.3209 12.498 16.414 12.2707C16.4671 12.1409 16.5935 12.0561 16.7337 12.0561H19.3624C19.608 12.0561 19.7752 12.3052 19.6822 12.5325ZM31.4702 12.2707C31.5633 12.498 31.3961 12.7472 31.1504 12.7472H28.5218C28.3815 12.7472 28.2551 12.6623 28.202 12.5325C28.109 12.3052 28.2762 12.0561 28.5218 12.0561H31.1504C31.2907 12.0561 31.417 12.1409 31.4702 12.2707ZM30.3327 10.7507C30.5784 10.7507 30.7456 10.5015 30.6525 10.2742C30.5993 10.1444 30.473 10.0596 30.3327 10.0596H17.5514C17.4112 10.0596 17.2848 10.1444 17.2317 10.2742C17.1386 10.5015 17.3057 10.7507 17.5514 10.7507H30.3327ZM14.9953 10.7507C15.1608 10.7507 15.3095 10.6485 15.3498 10.488C15.406 10.2639 15.2249 10.0596 14.994 10.0596H11.766C11.7346 10.0632 11.7028 10.065 11.6707 10.0652C11.6682 10.0652 11.6663 10.0672 11.6663 10.0696C11.6663 10.072 11.6643 10.074 11.6619 10.074H3.22125C3.21728 10.074 3.21406 10.0708 3.21406 10.0668C3.21406 10.0629 3.21084 10.0596 3.20688 10.0596H0.677556C0.486728 10.0596 0.332031 10.2143 0.332031 10.4052C0.332031 10.596 0.486728 10.7507 0.677557 10.7507H14.9953ZM0.332031 8.40868C0.332031 8.59951 0.486728 8.7542 0.677557 8.7542H2.86854C3.05937 8.7542 3.21406 8.59951 3.21406 8.40868C3.21406 8.21785 3.05937 8.06315 2.86854 8.06315H0.677557C0.486728 8.06315 0.332031 8.21785 0.332031 8.40868ZM0.332031 6.41219C0.332031 6.60302 0.486728 6.75772 0.677557 6.75772H2.86854C3.05937 6.75772 3.21406 6.60302 3.21406 6.41219C3.21406 6.22136 3.05937 6.06667 2.86854 6.06667H0.677557C0.486728 6.06667 0.332031 6.22136 0.332031 6.41219ZM0.332031 4.41571C0.332031 4.60654 0.486728 4.76123 0.677557 4.76123H2.86854C3.05937 4.76123 3.21406 4.60654 3.21406 4.41571C3.21406 4.22488 3.05937 4.07018 2.86854 4.07018H0.677557C0.486728 4.07018 0.332031 4.22488 0.332031 4.41571ZM12.9108 4.07018C12.7199 4.07018 12.5653 4.22488 12.5653 4.41571C12.5653 4.60654 12.7199 4.76123 12.9108 4.76123H15.1018C15.2926 4.76123 15.4473 4.60654 15.4473 4.41571C15.4473 4.22488 15.2926 4.07018 15.1018 4.07018H12.9108ZM20.0044 4.07018C19.8642 4.07018 19.7378 4.15496 19.6847 4.28475C19.5916 4.51209 19.7588 4.76123 20.0044 4.76123H22.8262C22.9605 4.76123 23.0826 4.68347 23.1393 4.56182C23.2462 4.33274 23.079 4.07018 22.8262 4.07018H20.0044ZM25.0579 4.07018C24.8051 4.07018 24.6379 4.33274 24.7448 4.56182C24.8016 4.68347 24.9237 4.76123 25.0579 4.76123H27.8797C28.1254 4.76123 28.2926 4.51209 28.1995 4.28475C28.1463 4.15496 28.02 4.07018 27.8797 4.07018H25.0579ZM32.7998 4.07018C32.6089 4.07018 32.4543 4.22488 32.4543 4.41571C32.4543 4.60654 32.6089 4.76123 32.7998 4.76123H34.9908C35.1816 4.76123 35.3363 4.60654 35.3363 4.41571C35.3363 4.22488 35.1816 4.07018 34.9908 4.07018H32.7998ZM35.3363 6.41219C35.3363 6.22136 35.1816 6.06667 34.9908 6.06667H32.7998C32.6089 6.06667 32.4543 6.22136 32.4543 6.41219C32.4543 6.60302 32.6089 6.75772 32.7998 6.75772H34.9908C35.1816 6.75772 35.3363 6.60302 35.3363 6.41219ZM35.3363 8.40868C35.3363 8.21785 35.1816 8.06315 34.9908 8.06315H32.7998C32.6089 8.06315 32.4543 8.21785 32.4543 8.40868C32.4543 8.59951 32.6089 8.7542 32.7998 8.7542H34.9908C35.1816 8.7542 35.3363 8.59951 35.3363 8.40868ZM29.5151 8.7542C29.7607 8.7542 29.9279 8.50506 29.8348 8.27772C29.7817 8.14793 29.6553 8.06315 29.5151 8.06315H18.3691C18.2288 8.06315 18.1025 8.14793 18.0493 8.27772C17.9562 8.50506 18.1234 8.7542 18.3691 8.7542H29.5151ZM15.1018 8.7542C15.2926 8.7542 15.4473 8.59951 15.4473 8.40868C15.4473 8.21785 15.2926 8.06315 15.1018 8.06315H12.9108C12.7199 8.06315 12.5653 8.21785 12.5653 8.40868C12.5653 8.59951 12.7199 8.7542 12.9108 8.7542H15.1018ZM12.5653 6.41219C12.5653 6.60302 12.7199 6.75772 12.9108 6.75772H15.1018C15.2926 6.75772 15.4473 6.60302 15.4473 6.41219C15.4473 6.22136 15.2926 6.06667 15.1018 6.06667H12.9108C12.7199 6.06667 12.5653 6.22136 12.5653 6.41219ZM19.1868 6.06667C19.0465 6.06667 18.9202 6.15145 18.867 6.28124C18.7739 6.50857 18.9411 6.75772 19.1868 6.75772H21.8946C22.0289 6.75772 22.151 6.67996 22.2077 6.5583C22.3146 6.32923 22.1474 6.06667 21.8946 6.06667H19.1868ZM25.9895 6.06667C25.7368 6.06667 25.5695 6.32923 25.6764 6.5583C25.7332 6.67996 25.8553 6.75772 25.9895 6.75772H28.6974C28.9431 6.75772 29.1103 6.50857 29.0171 6.28124C28.964 6.15145 28.8377 6.06667 28.6974 6.06667H25.9895Z" fill="white"/>
</svg>
